<svg xmlns="http://www.w3.org/2000/svg" viewBox="0 0 290.23 50"><defs><style>.cls-1{fill:#00dbdc;}.cls-2{fill:#f8ff81;}</style></defs><g id="Layer_2" data-name="Layer 2"><g id="Layer_1-2" data-name="Layer 1"><path class="cls-1" d="M50,25A25,25,0,1,1,25,0,25,25,0,0,1,50,25Z"/><path class="cls-2" d="M42.27,29.1H34.42a7.68,7.68,0,0,1-5.7-3.27c-1.66-2.51-1.6-5.92.2-10.12l1.84.78c-1.52,3.55-1.64,6.32-.37,8.24a5.68,5.68,0,0,0,4,2.37h7.85Z"/><path class="cls-2" d="M16.43,29.1H7.73v-2h6.7a13.07,13.07,0,0,1,4.89-8.62c4.8-4,10.63-3.62,14.59-3l-.31,2c-3.58-.57-8.82-.91-13,2.56-4.39,3.65-4.22,8-4.22,8Z"/><path class="cls-1" d="M110.06,25a25,25,0,1,1-25-25A25,25,0,0,1,110.06,25Z"/><path class="cls-2" d="M82.84,41.29l-.6-1c-2-3.48-3-11.9-3-18.06A17.09,17.09,0,0,1,84.41,9.49L85.06,9l.64.54a17.09,17.09,0,0,1,5.22,12.69c0,6.16-1.07,14.58-3,18.06l-.6,1-2.21-1.9Zm2.22-4.53,1.6,1.37c1.43-3.6,2.26-10.59,2.26-16a15.68,15.68,0,0,0-3.86-10.51,15.74,15.74,0,0,0-3.87,10.51c0,5.36.84,12.35,2.27,16Z"/><path class="cls-1" d="M170.12,25a25,25,0,1,1-25-25A25,25,0,0,1,170.12,25Z"/><path class="cls-2" d="M159.38,35.46H133.74v-22h13.67V23.74l7.15,1.19a7.08,7.08,0,0,1,5.75,7,7,7,0,0,1-.66,3Zm-23.64-2h22.33a5.15,5.15,0,0,0,.24-1.57,5.09,5.09,0,0,0-4.12-5l-8.78-1.45V15.5h-9.67Z"/><rect class="cls-2" x="140.49" y="18.56" width="5.92" height="2"/><rect class="cls-2" x="134.74" y="32.02" width="24.42" height="2"/><path class="cls-1" d="M230.17,25a25,25,0,1,1-25-25A25,25,0,0,1,230.17,25Z"/><polygon class="cls-2" points="221.22 27.48 198.22 27.48 189.1 18.37 190.52 16.95 199.05 25.48 221.22 25.48 221.22 27.48"/><rect class="cls-2" x="192.74" y="29.28" width="7.5" height="2" transform="translate(89.9 198.1) rotate(-66.34)"/><rect class="cls-2" x="213.89" y="26.3" width="2" height="7.24" transform="translate(1.53 69.31) rotate(-18.39)"/><rect class="cls-2" x="200.16" y="9.91" width="4.43" height="2" transform="translate(33.05 122.29) rotate(-36.42)"/><rect class="cls-2" x="205.03" y="13.8" width="4.43" height="2" transform="translate(110.68 198.76) rotate(-66.39)"/><rect class="cls-2" x="212.4" y="13.51" width="2" height="4.43" transform="translate(-0.42 24.02) rotate(-6.43)"/><path class="cls-1" d="M290.23,25a25,25,0,1,1-25-25A25,25,0,0,1,290.23,25Z"/><path class="cls-2" d="M275,37.63h-19.5V11.54H275Zm-17.5-2H273V13.54h-15.5Z"/><path class="cls-2" d="M265.23,21.65a3.11,3.11,0,1,1,3.11-3.11A3.11,3.11,0,0,1,265.23,21.65Zm0-4.21a1.11,1.11,0,1,0,1.11,1.1A1.11,1.11,0,0,0,265.23,17.44Z"/><path class="cls-2" d="M265.23,34.65a6.25,6.25,0,1,1,6.25-6.24A6.26,6.26,0,0,1,265.23,34.65Zm0-10.49a4.25,4.25,0,1,0,4.25,4.25A4.26,4.26,0,0,0,265.23,24.16Z"/></g></g></svg>