<svg xmlns="http://www.w3.org/2000/svg" viewBox="0 0 132.3 57.5"><defs><style>.a{fill:#00dbdc;}.b{fill:#00b033;}.c{fill:#976b00;}</style></defs><rect class="a" x="61.8" y="30.5" width="70.5" height="6"/><path class="b" d="M46.8,51.7H0V48.6c0-7.2,5.9-23,23.4-23s23.4,15.8,23.4,23ZM6.6,45.6H40.3C39,39.8,34.2,31.7,23.4,31.7S7.9,39.8,6.6,45.6Z"/><rect class="a" x="0.1" y="51.5" width="46.7" height="6"/><rect class="c" x="20.3" y="17.3" width="6.2" height="19.83"/><polygon class="b" points="23.4 21.2 11.9 12.3 15.6 7.4 23.4 13.4 30.8 7.5 34.7 12.3 23.4 21.2"/><polygon class="b" points="23.4 13.8 11.9 4.9 15.6 0 23.4 6 30.8 0 34.7 4.9 23.4 13.8"/></svg>